<svg xmlns="http://www.w3.org/2000/svg" viewBox="0 0 543 628" fill="none">
  <path fill="#F4F4F4" d="M271.5 0C163.3 0 76.4 86.9 76.4 194.1c0 80.4 55.5 134.3 89.8 159.2 19.2 13.8 43.4-3 43.4-25.4 0-7.3-2.9-14.2-8.1-19.2-19.7-18.6-37.2-47-37.2-88.6 0-59.8 45.6-107 106.9-107s106.9 47.2 106.9 107c0 41.6-17.5 70-37.2 88.6-5.2 5-8.1 11.9-8.1 19.2 0 22.4 24.2 39.2 43.4 25.4 34.3-24.9 89.8-78.8 89.8-159.2C466.6 86.9 379.7 0 271.5 0zm.2 143.4c-39 0-70.9 33.7-70.9 75.1 0 24.1 7.8 43.4 19 57.5 15.7 20 23.5 48.6 23.5 84.8s-7.8 64.8-23.5 84.8c-18.1 22.8-33.7 49.1-33.7 86.3 0 47.4 35.5 85 85 85s85-37.6 85-85c0-37.2-15.6-63.5-33.7-86.3-15.7-20-23.5-48.6-23.5-84.8s7.8-64.8 23.5-84.8c11.2-14.1 19-33.4 19-57.5 0-41.4-31.9-75.1-70.9-75.1z"/>
</svg>
